# xmcd
#
# Track frame offsets:
#	150
#	16216
#	32414
#	53114
#	70024
#	86090
#	102288
#	122988
#
# Disc length: 1865
#
# Revision: 2
# Processed by: cddbd v1.5.1PL0 Copyright (c) Steve Scherf et al.
# Submitted via: audiograbber 1.83.01
# Normalized: r1:TDELIM( - ),TSWAP
#
DISCID=5f074708
DTITLE=Garth Brooks - Karaoke Bay
DYEAR=1900
DGENRE=Karaoke
TTITLE0=Garth Brooks - Wrapped Up In You
TTITLE1=Garth Brooks - American Honkey Tonk Bar Association
TTITLE2=Garth Brooks - Shameless
TTITLE3=Garth Brooks - Rodeo
TTITLE4=Garth Brooks - Vocals - Wrapped Up In You
TTITLE5=Garth Brooks - Vocals - American Honkey Tonk Bar Association
TTITLE6=Garth Brooks - Vocals - Shameless
TTITLE7=Garth Brooks - Vocals - Rodeo
EXTD=
EXTT0=
EXTT1=
EXTT2=
EXTT3=
EXTT4=
EXTT5=
EXTT6=
EXTT7=
PLAYORDER=
